<svg width="210" height="55" viewBox="0 0 210 55" fill="none" xmlns="http://www.w3.org/2000/svg">
<path d="M6.57607 0.339948L10.0575 21.4593L13.2811 0.339948H19.8571V30.0856H15.3871V8.75371L12.1206 30.0856H7.65059L4.12616 9.05117V30.0856H0V0.339948H6.57607Z" fill="#ED1C24"/>
<path d="M28.0242 4.58932V12.8756H34.5143V17.125H28.0242V25.8362H36.1905V30.0856H23.2963V0.339948H36.1905V4.58932H28.0242Z" fill="#ED1C24"/>
<path d="M39.1203 30.0856V0.339948H46.5989C51.2982 0.339948 53.6478 2.79042 53.6478 7.69137V22.7342C53.6478 27.6351 51.2982 30.0856 46.5989 30.0856H39.1203ZM46.513 4.58932H43.8482V25.8362H46.513C48.1176 25.8362 48.9199 24.873 48.9199 22.9466V7.4789C48.9199 5.55252 48.1176 4.58932 46.513 4.58932Z" fill="#ED1C24"/>
<path d="M56.6652 30.0856V0.339948H61.3931V30.0856H56.6652Z" fill="#ED1C24"/>
<path d="M75.3373 0.339948L80.1512 30.0856H75.3803L74.5637 24.6889H68.7613L67.9446 30.0856H63.6036L68.4174 0.339948H75.3373ZM71.641 5.60917L69.363 20.652H73.919L71.641 5.60917Z" fill="#ED1C24"/>
<path d="M95.5598 0.339948L99.0413 21.4593L102.265 0.339948H108.841V30.0856H104.371V8.75371L101.104 30.0856H96.6343L93.1099 9.05117V30.0856H88.9837V0.339948H95.5598Z" fill="#ED1C24"/>
<path d="M117.008 4.58932V12.8756H123.498V17.125H117.008V25.8362H125.174V30.0856H112.28V0.339948H125.174V4.58932H117.008Z" fill="#ED1C24"/>
<path d="M138.205 30.0856L132.316 8.54124V30.0856H128.061V0.339948H133.992L138.849 18.1448V0.339948H143.061V30.0856H138.205Z" fill="#ED1C24"/>
<path d="M145.071 4.58932V0.339948H159.685V4.58932H154.742V30.0856H150.014V4.58932H145.071Z" fill="#ED1C24"/>
<path d="M166.108 7.18144V23.2441C166.108 25.1988 166.924 26.1762 168.558 26.1762C170.191 26.1762 171.008 25.1988 171.008 23.2441V7.18144C171.008 5.22673 170.191 4.24937 168.558 4.24937C166.924 4.24937 166.108 5.22673 166.108 7.18144ZM161.38 22.9466V7.4789C161.38 5.09925 161.996 3.25785 163.228 1.95471C164.46 0.65157 166.237 0 168.558 0C170.879 0 172.655 0.65157 173.887 1.95471C175.119 3.25785 175.736 5.09925 175.736 7.4789V22.9466C175.736 25.3263 175.119 27.1677 173.887 28.4708C172.655 29.774 170.879 30.4255 168.558 30.4255C166.237 30.4255 164.46 29.774 163.228 28.4708C161.996 27.1677 161.38 25.3263 161.38 22.9466Z" fill="#ED1C24"/>
<path d="M193.507 30.0856H188.694C188.407 29.2357 188.264 28.0176 188.264 26.4311V21.7568C188.264 20.397 188.02 19.4338 187.533 18.8672C187.046 18.2723 186.258 17.9749 185.169 17.9749H183.536V30.0856H178.808V0.339948H185.943C188.378 0.339948 190.155 0.906532 191.272 2.0397C192.39 3.14454 192.949 4.85845 192.949 7.18144V9.5186C192.949 12.5782 191.917 14.5895 189.854 15.5527C191.946 16.4309 192.992 18.5414 192.992 21.8843V26.4736C192.992 28.0884 193.164 29.2924 193.507 30.0856ZM185.814 4.58932H183.536V13.7255H185.384C186.33 13.7255 187.032 13.4847 187.49 13.0031C187.977 12.5215 188.221 11.7141 188.221 10.5809V7.64888C188.221 5.60918 187.418 4.58932 185.814 4.58932Z" fill="#ED1C24"/>
<path d="M195.499 7.4789C195.499 5.07092 196.087 3.22952 197.262 1.95471C198.436 0.65157 200.17 0 202.462 0C204.755 0 206.488 0.65157 207.663 1.95471C208.838 3.22952 209.425 5.07092 209.425 7.4789V8.41376H204.955V7.18144C204.955 5.22673 204.167 4.24937 202.591 4.24937C201.015 4.24937 200.227 5.22673 200.227 7.18144C200.227 8.00299 200.399 8.78204 200.743 9.5186C201.087 10.2552 201.531 10.9209 202.075 11.5158C202.62 12.1107 203.222 12.7056 203.881 13.3005C204.54 13.8671 205.184 14.4762 205.815 15.1278C206.474 15.751 207.075 16.4309 207.62 17.1675C208.164 17.8757 208.608 18.7256 208.952 19.7171C209.296 20.7086 209.468 21.7851 209.468 22.9466C209.468 25.3546 208.866 27.2102 207.663 28.5133C206.459 29.7881 204.712 30.4255 202.419 30.4255C200.127 30.4255 198.379 29.7881 197.176 28.5133C195.972 27.2102 195.37 25.3546 195.37 22.9466V21.1194H199.84V23.2441C199.84 25.1705 200.657 26.1337 202.29 26.1337C203.924 26.1337 204.74 25.1705 204.74 23.2441C204.74 22.1392 204.425 21.1052 203.795 20.142C203.164 19.1505 202.391 18.2581 201.474 17.4649C200.585 16.6717 199.683 15.8502 198.766 15.0003C197.849 14.1221 197.075 13.0456 196.445 11.7708C195.814 10.4676 195.499 9.037 195.499 7.4789Z" fill="#ED1C24"/>
<path d="M67.8797 39.9568C70.2539 39.9568 71.441 41.1804 71.441 43.6274V45.5582C71.441 48.0053 70.2539 49.2288 67.8797 49.2288H66.7505V54.8089H64.3618V39.9568H67.8797ZM67.8797 42.0786H66.7505V47.1071H67.8797C68.2705 47.1071 68.5601 47.001 68.7483 46.7888C68.951 46.5766 69.0523 46.2159 69.0523 45.7067V43.4789C69.0523 42.9697 68.951 42.609 68.7483 42.3968C68.5601 42.1847 68.2705 42.0786 67.8797 42.0786Z" fill="#ED1C24"/>
<path d="M80.0802 54.8089H77.6481C77.5033 54.3846 77.4309 53.7763 77.4309 52.9842V50.6503C77.4309 49.9714 77.3079 49.4905 77.0618 49.2076C76.8157 48.9105 76.4175 48.762 75.8674 48.762H75.0422V54.8089H72.6535V39.9568H76.2583C77.4888 39.9568 78.3864 40.2397 78.951 40.8055C79.5156 41.3572 79.7979 42.2129 79.7979 43.3728V44.5398C79.7979 46.0674 79.2768 47.0717 78.2344 47.5526C79.2912 47.9911 79.8196 49.0449 79.8196 50.714V53.0055C79.8196 53.8117 79.9065 54.4129 80.0802 54.8089ZM76.1931 42.0786H75.0422V46.6403H75.976C76.4537 46.6403 76.8084 46.52 77.0401 46.2796C77.2862 46.0391 77.4092 45.636 77.4092 45.0702V43.6062C77.4092 42.5878 77.0039 42.0786 76.1931 42.0786Z" fill="#ED1C24"/>
<path d="M83.5839 43.3728V51.3929C83.5839 52.3689 83.9965 52.8569 84.8217 52.8569C85.6469 52.8569 86.0595 52.3689 86.0595 51.3929V43.3728C86.0595 42.3968 85.6469 41.9088 84.8217 41.9088C83.9965 41.9088 83.5839 42.3968 83.5839 43.3728ZM81.1952 51.2444V43.5213C81.1952 42.3332 81.5064 41.4138 82.1289 40.7631C82.7515 40.1124 83.649 39.7871 84.8217 39.7871C85.9943 39.7871 86.8919 40.1124 87.5144 40.7631C88.1369 41.4138 88.4482 42.3332 88.4482 43.5213V51.2444C88.4482 52.4326 88.1369 53.352 87.5144 54.0027C86.8919 54.6533 85.9943 54.9787 84.8217 54.9787C83.649 54.9787 82.7515 54.6533 82.1289 54.0027C81.5064 53.352 81.1952 52.4326 81.1952 51.2444Z" fill="#ED1C24"/>
<path d="M90.0005 54.8089V39.9568H93.779C96.1532 39.9568 97.3403 41.1804 97.3403 43.6274V51.1383C97.3403 53.5854 96.1532 54.8089 93.779 54.8089H90.0005ZM93.7355 42.0786H92.3892V52.6872H93.7355C94.5463 52.6872 94.9516 52.2063 94.9516 51.2444V43.5213C94.9516 42.5595 94.5463 42.0786 93.7355 42.0786Z" fill="#ED1C24"/>
<path d="M98.7562 39.9568H101.145V51.4142C101.145 52.376 101.558 52.8569 102.383 52.8569C103.208 52.8569 103.621 52.376 103.621 51.4142V39.9568H105.879V51.2656C105.879 52.4679 105.575 53.3944 104.967 54.0451C104.359 54.6816 103.476 54.9999 102.318 54.9999C101.159 54.9999 100.276 54.6816 99.6683 54.0451C99.0603 53.3944 98.7562 52.4679 98.7562 51.2656V39.9568Z" fill="#ED1C24"/>
<path d="M112.186 49.2712H114.444V51.2444C114.444 52.4467 114.14 53.3732 113.532 54.0239C112.924 54.6604 112.041 54.9787 110.883 54.9787C109.725 54.9787 108.842 54.6604 108.234 54.0239C107.626 53.3732 107.322 52.4467 107.322 51.2444V43.5213C107.322 42.319 107.626 41.3996 108.234 40.7631C108.842 40.1124 109.725 39.7871 110.883 39.7871C112.041 39.7871 112.924 40.1124 113.532 40.7631C114.14 41.3996 114.444 42.319 114.444 43.5213V44.9641H112.186V43.3728C112.186 42.3968 111.773 41.9088 110.948 41.9088C110.123 41.9088 109.71 42.3968 109.71 43.3728V51.3929C109.71 52.3548 110.123 52.8357 110.948 52.8357C111.773 52.8357 112.186 52.3548 112.186 51.3929V49.2712Z" fill="#ED1C24"/>
<path d="M115.199 42.0786V39.9568H122.582V42.0786H120.085V54.8089H117.696V42.0786H115.199Z" fill="#ED1C24"/>
<path d="M123.634 54.8089V39.9568H126.023V54.8089H123.634Z" fill="#ED1C24"/>
<path d="M129.963 43.3728V51.3929C129.963 52.3689 130.375 52.8569 131.2 52.8569C132.026 52.8569 132.438 52.3689 132.438 51.3929V43.3728C132.438 42.3968 132.026 41.9088 131.2 41.9088C130.375 41.9088 129.963 42.3968 129.963 43.3728ZM127.574 51.2444V43.5213C127.574 42.3332 127.885 41.4138 128.508 40.7631C129.13 40.1124 130.028 39.7871 131.2 39.7871C132.373 39.7871 133.271 40.1124 133.893 40.7631C134.516 41.4138 134.827 42.3332 134.827 43.5213V51.2444C134.827 52.4326 134.516 53.352 133.893 54.0027C133.271 54.6533 132.373 54.9787 131.2 54.9787C130.028 54.9787 129.13 54.6533 128.508 54.0027C127.885 53.352 127.574 52.4326 127.574 51.2444Z" fill="#ED1C24"/>
<path d="M141.482 54.8089L138.507 44.0518V54.8089H136.358V39.9568H139.354L141.808 48.8469V39.9568H143.936V54.8089H141.482Z" fill="#ED1C24"/>
</svg>
