<svg width="145" height="38" viewBox="0 0 145 38" fill="none" xmlns="http://www.w3.org/2000/svg">
<path d="M4.54347 0.234873L6.94883 14.8265L9.17602 0.234873H13.7195V20.7864H10.6311V6.04802L8.37423 20.7864H5.28586L2.8508 6.25354V20.7864H0V0.234873H4.54347Z" fill="#ED1C24"/>
<path d="M19.3622 3.17081V8.89588H23.8462V11.8318H19.3622V17.8505H25.0044V20.7864H16.0956V0.234873H25.0044V3.17081H19.3622Z" fill="#ED1C24"/>
<path d="M27.0286 20.7864V0.234873H32.1956C35.4424 0.234873 37.0658 1.92793 37.0658 5.31404V15.7072C37.0658 19.0933 35.4424 20.7864 32.1956 20.7864H27.0286ZM32.1362 3.17081H30.2951V17.8505H32.1362C33.2449 17.8505 33.7992 17.185 33.7992 15.854V5.16724C33.7992 3.83628 33.2449 3.17081 32.1362 3.17081Z" fill="#ED1C24"/>
<path d="M39.1505 20.7864V0.234873H42.417V20.7864H39.1505Z" fill="#ED1C24"/>
<path d="M52.0513 0.234873L55.3772 20.7864H52.081L51.5167 17.0578H47.5078L46.9436 20.7864H43.9443L47.2702 0.234873H52.0513ZM49.4974 3.87543L47.9235 14.2686H51.0713L49.4974 3.87543Z" fill="#ED1C24"/>
<path d="M66.0231 0.234873L68.4285 14.8265L70.6557 0.234873H75.1992V20.7864H72.1108V6.04802L69.8539 20.7864H66.7655L64.3305 6.25354V20.7864H61.4797V0.234873H66.0231Z" fill="#ED1C24"/>
<path d="M80.8419 3.17081V8.89588H85.3259V11.8318H80.8419V17.8505H86.4841V20.7864H77.5753V0.234873H86.4841V3.17081H80.8419Z" fill="#ED1C24"/>
<path d="M95.4868 20.7864L91.4184 5.90122V20.7864H88.4786V0.234873H92.5766L95.9322 12.5364V0.234873H98.8424V20.7864H95.4868Z" fill="#ED1C24"/>
<path d="M100.231 3.17081V0.234873H110.328V3.17081H106.912V20.7864H103.646V3.17081H100.231Z" fill="#ED1C24"/>
<path d="M114.765 4.96172V16.0595C114.765 17.4101 115.33 18.0853 116.458 18.0853C117.587 18.0853 118.151 17.4101 118.151 16.0595V4.96172C118.151 3.6112 117.587 2.93593 116.458 2.93593C115.33 2.93593 114.765 3.6112 114.765 4.96172ZM111.499 15.854V5.16724C111.499 3.52312 111.925 2.25088 112.776 1.35053C113.627 0.450176 114.854 0 116.458 0C118.062 0 119.289 0.450176 120.14 1.35053C120.992 2.25088 121.417 3.52312 121.417 5.16724V15.854C121.417 17.4982 120.992 18.7704 120.14 19.6707C119.289 20.5711 118.062 21.0213 116.458 21.0213C114.854 21.0213 113.627 20.5711 112.776 19.6707C111.925 18.7704 111.499 17.4982 111.499 15.854Z" fill="#ED1C24"/>
<path d="M133.696 20.7864H130.37C130.172 20.1992 130.073 19.3576 130.073 18.2615V15.032C130.073 14.0925 129.905 13.427 129.568 13.0355C129.232 12.6245 128.687 12.419 127.935 12.419H126.807V20.7864H123.54V0.234873H128.47C130.152 0.234873 131.38 0.626331 132.152 1.40925C132.924 2.17259 133.31 3.35675 133.31 4.96172V6.57649C133.31 8.69036 132.597 10.08 131.172 10.7455C132.617 11.3523 133.34 12.8105 133.34 15.1201V18.2909C133.34 19.4065 133.458 20.2384 133.696 20.7864ZM128.38 3.17081H126.807V9.48306H128.084C128.737 9.48306 129.222 9.31669 129.539 8.98396C129.875 8.65122 130.043 8.09339 130.043 7.31047V5.28468C130.043 3.87543 129.489 3.17081 128.38 3.17081Z" fill="#ED1C24"/>
<path d="M135.072 5.16724C135.072 3.50355 135.478 2.23131 136.29 1.35053C137.101 0.450176 138.299 0 139.883 0C141.467 0 142.665 0.450176 143.476 1.35053C144.288 2.23131 144.694 3.50355 144.694 5.16724V5.81314H141.605V4.96172C141.605 3.6112 141.061 2.93593 139.972 2.93593C138.883 2.93593 138.339 3.6112 138.339 4.96172C138.339 5.52934 138.458 6.06759 138.695 6.57649C138.933 7.08538 139.24 7.54534 139.616 7.95638C139.992 8.36741 140.408 8.77844 140.863 9.18947C141.318 9.58093 141.764 10.0017 142.199 10.4519C142.655 10.8825 143.07 11.3523 143.447 11.8612C143.823 12.3505 144.13 12.9377 144.367 13.6227C144.605 14.3078 144.723 15.0515 144.723 15.854C144.723 17.5177 144.308 18.7998 143.476 19.7001C142.645 20.5809 141.437 21.0213 139.853 21.0213C138.27 21.0213 137.062 20.5809 136.23 19.7001C135.399 18.7998 134.983 17.5177 134.983 15.854V14.5916H138.072V16.0595C138.072 17.3905 138.636 18.056 139.764 18.056C140.893 18.056 141.457 17.3905 141.457 16.0595C141.457 15.2962 141.239 14.5818 140.804 13.9163C140.368 13.2313 139.834 12.6147 139.2 12.0667C138.586 11.5186 137.963 10.951 137.329 10.3638C136.696 9.75708 136.161 9.01331 135.726 8.13253C135.29 7.23218 135.072 6.24375 135.072 5.16724Z" fill="#ED1C24"/>
<path d="M46.8986 27.6065C48.539 27.6065 49.3592 28.4519 49.3592 30.1426V31.4766C49.3592 33.1673 48.539 34.0126 46.8986 34.0126H46.1185V37.868H44.4681V27.6065H46.8986ZM46.8986 29.0724H46.1185V32.5467H46.8986C47.1687 32.5467 47.3687 32.4734 47.4988 32.3268C47.6388 32.1802 47.7088 31.931 47.7088 31.5792V30.04C47.7088 29.6881 47.6388 29.4389 47.4988 29.2923C47.3687 29.1457 47.1687 29.0724 46.8986 29.0724Z" fill="#ED1C24"/>
<path d="M55.3281 37.868H53.6477C53.5477 37.5748 53.4977 37.1545 53.4977 36.6073V34.9948C53.4977 34.5257 53.4127 34.1934 53.2426 33.9979C53.0726 33.7927 52.7975 33.6901 52.4174 33.6901H51.8473V37.868H50.1969V27.6065H52.6875C53.5377 27.6065 54.1578 27.802 54.5479 28.1929C54.938 28.574 55.1331 29.1653 55.1331 29.9667V30.7729C55.1331 31.8284 54.773 32.5222 54.0528 32.8545C54.783 33.1575 55.1481 33.8856 55.1481 35.0387V36.6219C55.1481 37.179 55.2081 37.5943 55.3281 37.868ZM52.6425 29.0724H51.8473V32.2242H52.4925C52.8225 32.2242 53.0676 32.1411 53.2276 31.975C53.3977 31.8088 53.4827 31.5303 53.4827 31.1394V30.1279C53.4827 29.4243 53.2026 29.0724 52.6425 29.0724Z" fill="#ED1C24"/>
<path d="M57.7488 29.9667V35.5078C57.7488 36.1822 58.0339 36.5193 58.604 36.5193C59.1742 36.5193 59.4592 36.1822 59.4592 35.5078V29.9667C59.4592 29.2923 59.1742 28.9552 58.604 28.9552C58.0339 28.9552 57.7488 29.2923 57.7488 29.9667ZM56.0984 35.4052V30.0693C56.0984 29.2484 56.3135 28.6131 56.7436 28.1636C57.1737 27.714 57.7938 27.4893 58.604 27.4893C59.4142 27.4893 60.0343 27.714 60.4644 28.1636C60.8945 28.6131 61.1096 29.2484 61.1096 30.0693V35.4052C61.1096 36.2261 60.8945 36.8614 60.4644 37.3109C60.0343 37.7605 59.4142 37.9852 58.604 37.9852C57.7938 37.9852 57.1737 37.7605 56.7436 37.3109C56.3135 36.8614 56.0984 36.2261 56.0984 35.4052Z" fill="#ED1C24"/>
<path d="M62.1821 37.868V27.6065H64.7927C66.4331 27.6065 67.2533 28.4519 67.2533 30.1426V35.3319C67.2533 37.0226 66.4331 37.868 64.7927 37.868H62.1821ZM64.7627 29.0724H63.8325V36.402H64.7627C65.3228 36.402 65.6029 36.0698 65.6029 35.4052V30.0693C65.6029 29.4047 65.3228 29.0724 64.7627 29.0724Z" fill="#ED1C24"/>
<path d="M68.2315 27.6065H69.8819V35.5225C69.8819 36.187 70.167 36.5193 70.7371 36.5193C71.3073 36.5193 71.5923 36.187 71.5923 35.5225V27.6065H73.1527V35.4199C73.1527 36.2506 72.9426 36.8907 72.5225 37.3402C72.1024 37.78 71.4923 37.9999 70.6921 37.9999C69.8919 37.9999 69.2818 37.78 68.8617 37.3402C68.4416 36.8907 68.2315 36.2506 68.2315 35.4199V27.6065Z" fill="#ED1C24"/>
<path d="M77.5102 34.0419H79.0706V35.4052C79.0706 36.2359 78.8605 36.876 78.4404 37.3256C78.0204 37.7653 77.4102 37.9852 76.61 37.9852C75.8098 37.9852 75.1997 37.7653 74.7796 37.3256C74.3595 36.876 74.1495 36.2359 74.1495 35.4052V30.0693C74.1495 29.2386 74.3595 28.6034 74.7796 28.1636C75.1997 27.714 75.8098 27.4893 76.61 27.4893C77.4102 27.4893 78.0204 27.714 78.4404 28.1636C78.8605 28.6034 79.0706 29.2386 79.0706 30.0693V31.0661H77.5102V29.9667C77.5102 29.2923 77.2252 28.9552 76.655 28.9552C76.0849 28.9552 75.7998 29.2923 75.7998 29.9667V35.5078C75.7998 36.1724 76.0849 36.5047 76.655 36.5047C77.2252 36.5047 77.5102 36.1724 77.5102 35.5078V34.0419Z" fill="#ED1C24"/>
<path d="M79.5918 29.0724V27.6065H84.693V29.0724H82.9676V37.868H81.3172V29.0724H79.5918Z" fill="#ED1C24"/>
<path d="M85.4199 37.868V27.6065H87.0702V37.868H85.4199Z" fill="#ED1C24"/>
<path d="M89.7923 29.9667V35.5078C89.7923 36.1822 90.0774 36.5193 90.6475 36.5193C91.2176 36.5193 91.5027 36.1822 91.5027 35.5078V29.9667C91.5027 29.2923 91.2176 28.9552 90.6475 28.9552C90.0774 28.9552 89.7923 29.2923 89.7923 29.9667ZM88.1419 35.4052V30.0693C88.1419 29.2484 88.357 28.6131 88.7871 28.1636C89.2172 27.714 89.8373 27.4893 90.6475 27.4893C91.4577 27.4893 92.0778 27.714 92.5079 28.1636C92.938 28.6131 93.1531 29.2484 93.1531 30.0693V35.4052C93.1531 36.2261 92.938 36.8614 92.5079 37.3109C92.0778 37.7605 91.4577 37.9852 90.6475 37.9852C89.8373 37.9852 89.2172 37.7605 88.7871 37.3109C88.357 36.8614 88.1419 36.2261 88.1419 35.4052Z" fill="#ED1C24"/>
<path d="M97.7514 37.868L95.6959 30.4358V37.868H94.2106V27.6065H96.2811L97.9765 33.7487V27.6065H99.4468V37.868H97.7514Z" fill="#ED1C24"/>
</svg>
