<svg width="126" height="92" viewBox="0 0 126 92" fill="none" xmlns="http://www.w3.org/2000/svg">
<path d="M38 26.5098L63 2L88 26.5098" stroke="white" stroke-width="2"/>
<path d="M22.2647 45.2H26.0327C27.3127 45.2 28.2407 45.504 28.8167 46.112C29.3927 46.72 29.6807 47.656 29.6807 48.92V49.712C29.6807 50.64 29.5287 51.376 29.2247 51.92C28.9207 52.448 28.4167 52.824 27.7127 53.048C29.2167 53.464 29.9687 54.664 29.9687 56.648V58.064C29.9687 60.688 28.6887 62 26.1287 62H22.2647V45.2ZM24.1367 52.328H25.5767C26.3607 52.328 26.9287 52.168 27.2807 51.848C27.6487 51.528 27.8327 50.944 27.8327 50.096V49.112C27.8327 48.36 27.6887 47.808 27.4007 47.456C27.1127 47.088 26.6407 46.904 25.9847 46.904H24.1367V52.328ZM24.1367 60.296H26.1287C27.4567 60.296 28.1207 59.536 28.1207 58.016V56.528C28.1207 55.616 27.9367 54.976 27.5687 54.608C27.2007 54.224 26.6007 54.032 25.7687 54.032H24.1367V60.296ZM33.5351 52.64H37.6391V54.32H33.5351V60.296H38.5751V62H31.6631V45.2H38.5751V46.904H33.5351V52.64ZM40.3116 45.2H43.9836C46.4956 45.2 47.7516 46.568 47.7516 49.304V51.32C47.7516 54.024 46.4476 55.376 43.8396 55.376H42.1836V62H40.3116V45.2ZM42.1836 53.696H43.8396C44.5436 53.696 45.0636 53.52 45.3996 53.168C45.7356 52.816 45.9036 52.24 45.9036 51.44V49.208C45.9036 48.424 45.7516 47.848 45.4476 47.48C45.1436 47.096 44.6556 46.904 43.9836 46.904H42.1836V53.696ZM55.2178 54.44H51.0898V62H49.2178V45.2H51.0898V52.76H55.2178V45.2H57.0898V62H55.2178V54.44ZM67.6547 45.2L64.0547 58.304C63.7347 59.68 63.2627 60.664 62.6387 61.256C62.0307 61.832 61.0067 62.088 59.5667 62.024V60.344C60.2867 60.376 60.8227 60.272 61.1747 60.032C61.5427 59.776 61.8067 59.328 61.9667 58.688L62.3507 57.584L58.4867 45.2H60.3587L62.0627 51.032L63.2147 55.256L64.1987 51.032L65.7107 45.2H67.6547ZM73.4625 62H71.5905V46.904H68.4945V45.2H76.5585V46.904H73.4625V62ZM79.8242 51.824H81.4802C84.0882 51.824 85.3922 53.176 85.3922 55.88V57.896C85.3922 60.632 84.1362 62 81.6242 62H77.9522V45.2H79.8242V51.824ZM79.8242 60.296H81.6242C82.2962 60.296 82.7842 60.112 83.0882 59.744C83.3922 59.36 83.5442 58.776 83.5442 57.992V55.76C83.5442 54.96 83.3762 54.384 83.0402 54.032C82.7042 53.68 82.1842 53.504 81.4802 53.504H79.8242V60.296ZM90.7168 45.032C91.9808 45.032 92.9248 45.408 93.5488 46.16C94.1888 46.912 94.5088 47.944 94.5088 49.256V50.768H92.7328V49.16C92.7328 47.544 92.0768 46.736 90.7648 46.736C89.4528 46.736 88.7968 47.544 88.7968 49.16V58.04C88.7968 59.656 89.4528 60.464 90.7648 60.464C92.0768 60.464 92.7328 59.656 92.7328 58.04V55.856H94.5088V57.944C94.5088 59.256 94.1888 60.288 93.5488 61.04C92.9248 61.792 91.9808 62.168 90.7168 62.168C89.4688 62.168 88.5248 61.792 87.8848 61.04C87.2608 60.288 86.9488 59.256 86.9488 57.944V49.256C86.9488 47.944 87.2608 46.912 87.8848 46.16C88.5248 45.408 89.4688 45.032 90.7168 45.032ZM101.874 54.824H100.554C99.738 54.824 99.122 55.016 98.706 55.4C98.306 55.768 98.106 56.408 98.106 57.32V59.96C98.106 60.856 98.002 61.536 97.794 62H95.898C96.122 61.552 96.234 60.88 96.234 59.984V57.368C96.234 55.448 96.93 54.28 98.322 53.864C96.946 53.416 96.258 52.264 96.258 50.408V49.04C96.258 47.76 96.554 46.8 97.146 46.16C97.754 45.52 98.706 45.2 100.002 45.2H103.746V62H101.874V54.824ZM101.874 46.904H100.05C98.754 46.904 98.106 47.672 98.106 49.208V50.816C98.106 51.68 98.298 52.28 98.682 52.616C99.082 52.952 99.674 53.12 100.458 53.12H101.874V46.904ZM41.3077 78.44H37.1797V86H35.3077V69.2H37.1797V76.76H41.3077V69.2H43.1797V86H41.3077V78.44ZM51.2485 82.616H47.0005L46.3525 86H44.6245L47.8405 69.2H50.5525L53.7685 86H51.8965L51.2485 82.616ZM49.0885 71.312L47.2405 81.008H50.9845L49.0885 71.312ZM55.2295 69.2H58.9975C60.2775 69.2 61.2055 69.504 61.7815 70.112C62.3575 70.72 62.6455 71.656 62.6455 72.92V73.712C62.6455 74.64 62.4935 75.376 62.1895 75.92C61.8855 76.448 61.3815 76.824 60.6775 77.048C62.1815 77.464 62.9335 78.664 62.9335 80.648V82.064C62.9335 84.688 61.6535 86 59.0935 86H55.2295V69.2ZM57.1015 76.328H58.5415C59.3255 76.328 59.8935 76.168 60.2455 75.848C60.6135 75.528 60.7975 74.944 60.7975 74.096V73.112C60.7975 72.36 60.6535 71.808 60.3655 71.456C60.0775 71.088 59.6055 70.904 58.9495 70.904H57.1015V76.328ZM57.1015 84.296H59.0935C60.4215 84.296 61.0855 83.536 61.0855 82.016V80.528C61.0855 79.616 60.9015 78.976 60.5335 78.608C60.1655 78.224 59.5655 78.032 58.7335 78.032H57.1015V84.296ZM66.5 76.64H70.604V78.32H66.5V84.296H71.54V86H64.628V69.2H71.54V70.904H66.5V76.64ZM73.2764 69.2H76.9484C79.4604 69.2 80.7164 70.568 80.7164 73.304V75.32C80.7164 78.024 79.4124 79.376 76.8044 79.376H75.1484V86H73.2764V69.2ZM75.1484 77.696H76.8044C77.5084 77.696 78.0284 77.52 78.3644 77.168C78.7004 76.816 78.8684 76.24 78.8684 75.44V73.208C78.8684 72.424 78.7164 71.848 78.4124 71.48C78.1084 71.096 77.6204 70.904 76.9484 70.904H75.1484V77.696ZM89.1427 86L86.3587 78.752L83.5507 86H81.7747L85.1587 77.336L81.9907 69.2H83.9347L86.5267 75.92L89.1427 69.2H90.8947L87.7507 77.336L91.1107 86H89.1427Z" fill="white"/>
</svg>
