<svg width="481" height="126" viewBox="0 0 481 126" fill="none" xmlns="http://www.w3.org/2000/svg">
<path d="M15.7915 0.77879L23.7672 49.1614L31.1521 0.77879H46.2172V68.9233H35.9769V20.054L28.4935 68.9233H18.2531L10.179 20.7354V68.9233H0.726318V0.77879H15.7915Z" fill="#ED1C24"/>
<path d="M64.9272 10.5137V29.4969H79.7954V39.2318H64.9272V59.1884H83.6355V68.9233H54.096V0.77879H83.6355V10.5137H64.9272Z" fill="#ED1C24"/>
<path d="M90.3473 68.9233V0.77879H107.48C118.246 0.77879 123.629 6.3926 123.629 17.6202V52.0819C123.629 63.3095 118.246 68.9233 107.48 68.9233H90.3473ZM107.283 10.5137H101.178V59.1884H107.283C110.959 59.1884 112.797 56.9818 112.797 52.5686V17.1335C112.797 12.7203 110.959 10.5137 107.283 10.5137Z" fill="#ED1C24"/>
<path d="M130.541 68.9233V0.77879H141.372V68.9233H130.541Z" fill="#ED1C24"/>
<path d="M173.317 0.77879L184.345 68.9233H173.416L171.545 56.56H158.252L156.381 68.9233H146.436L157.464 0.77879H173.317ZM164.849 12.8501L159.631 47.3118H170.068L164.849 12.8501Z" fill="#ED1C24"/>
<path d="M219.645 0.77879L227.621 49.1614L235.006 0.77879H250.071V68.9233H239.831V20.054L232.347 68.9233H222.107L214.033 20.7354V68.9233H204.58V0.77879H219.645Z" fill="#ED1C24"/>
<path d="M268.781 10.5137V29.4969H283.649V39.2318H268.781V59.1884H287.489V68.9233H257.95V0.77879H287.489V10.5137H268.781Z" fill="#ED1C24"/>
<path d="M317.34 68.9233L303.851 19.5672V68.9233H294.103V0.77879H307.691L318.817 41.5682V0.77879H328.467V68.9233H317.34Z" fill="#ED1C24"/>
<path d="M333.071 10.5137V0.77879H366.549V10.5137H355.226V68.9233H344.394V10.5137H333.071Z" fill="#ED1C24"/>
<path d="M381.264 16.452V53.2501C381.264 57.7282 383.135 59.9672 386.877 59.9672C390.618 59.9672 392.489 57.7282 392.489 53.2501V16.452C392.489 11.974 390.618 9.73493 386.877 9.73493C383.135 9.73493 381.264 11.974 381.264 16.452ZM370.433 52.5686V17.1335C370.433 11.6819 371.844 7.46344 374.667 4.47806C377.49 1.49269 381.56 0 386.877 0C392.194 0 396.264 1.49269 399.086 4.47806C401.909 7.46344 403.32 11.6819 403.32 17.1335V52.5686C403.32 58.0202 401.909 62.2387 399.086 65.2241C396.264 68.2094 392.194 69.7021 386.877 69.7021C381.56 69.7021 377.49 68.2094 374.667 65.2241C371.844 62.2387 370.433 58.0202 370.433 52.5686Z" fill="#ED1C24"/>
<path d="M444.034 68.9233H433.006C432.35 66.9763 432.022 64.1857 432.022 60.5513V49.8429C432.022 46.7277 431.464 44.5211 430.348 43.2231C429.232 41.8602 427.426 41.1788 424.932 41.1788H421.19V68.9233H410.359V0.77879H426.704C432.284 0.77879 436.354 2.07678 438.914 4.67277C441.474 7.20385 442.754 11.1303 442.754 16.452V21.8063C442.754 28.8154 440.391 33.4233 435.665 35.6299C440.457 37.6417 442.853 42.4768 442.853 50.1349V60.6486C442.853 64.3479 443.247 67.1061 444.034 68.9233ZM426.409 10.5137H421.19V31.4438H425.424C427.591 31.4438 429.199 30.8922 430.249 29.7889C431.365 28.6856 431.923 26.836 431.923 24.24V17.5229C431.923 12.8501 430.085 10.5137 426.409 10.5137Z" fill="#ED1C24"/>
<path d="M448.598 17.1335C448.598 11.617 449.943 7.39855 452.635 4.47806C455.326 1.49269 459.297 0 464.549 0C469.8 0 473.772 1.49269 476.463 4.47806C479.155 7.39855 480.5 11.617 480.5 17.1335V19.2752H470.26V16.452C470.26 11.974 468.455 9.73493 464.844 9.73493C461.234 9.73493 459.429 11.974 459.429 16.452C459.429 18.3341 459.823 20.1189 460.61 21.8063C461.398 23.4936 462.415 25.0188 463.663 26.3817C464.91 27.7446 466.288 29.1075 467.798 30.4703C469.308 31.7683 470.785 33.1637 472.229 34.6564C473.739 36.0842 475.117 37.6417 476.365 39.3291C477.612 40.9516 478.629 42.8986 479.417 45.1701C480.205 47.4416 480.599 49.9078 480.599 52.5686C480.599 58.0851 479.22 62.336 476.463 65.3214C473.706 68.2419 469.702 69.7021 464.45 69.7021C459.199 69.7021 455.195 68.2419 452.438 65.3214C449.681 62.336 448.302 58.0851 448.302 52.5686V48.3826H458.542V53.2501C458.542 57.6633 460.413 59.8698 464.155 59.8698C467.897 59.8698 469.768 57.6633 469.768 53.2501C469.768 50.719 469.045 48.3502 467.601 46.1436C466.157 43.8721 464.385 41.8278 462.284 40.0106C460.249 38.1934 458.181 36.3113 456.081 34.3643C453.98 32.3524 452.208 29.8862 450.764 26.9658C449.32 23.9804 448.598 20.703 448.598 17.1335Z" fill="#ED1C24"/>
<path d="M156.232 91.5378C161.671 91.5378 164.391 94.3408 164.391 99.9468V104.37C164.391 109.976 161.671 112.779 156.232 112.779H153.645V125.563H148.173V91.5378H156.232ZM156.232 96.3985H153.645V107.918H156.232C157.128 107.918 157.791 107.675 158.222 107.189C158.687 106.703 158.919 105.877 158.919 104.71V99.6065C158.919 98.4399 158.687 97.6136 158.222 97.1276C157.791 96.6415 157.128 96.3985 156.232 96.3985Z" fill="#ED1C24"/>
<path d="M184.183 125.563H178.611C178.279 124.59 178.113 123.197 178.113 121.382V116.036C178.113 114.48 177.831 113.378 177.268 112.73C176.704 112.05 175.792 111.71 174.532 111.71H172.641V125.563H167.169V91.5378H175.427C178.246 91.5378 180.302 92.1859 181.596 93.4821C182.889 94.7458 183.536 96.7063 183.536 99.3635V102.037C183.536 105.537 182.342 107.837 179.954 108.939C182.375 109.944 183.586 112.358 183.586 116.181V121.431C183.586 123.278 183.785 124.655 184.183 125.563ZM175.278 96.3985H172.641V106.849H174.78C175.875 106.849 176.687 106.573 177.218 106.023C177.782 105.472 178.064 104.548 178.064 103.252V99.8981C178.064 97.565 177.135 96.3985 175.278 96.3985Z" fill="#ED1C24"/>
<path d="M192.209 99.3635V117.737C192.209 119.973 193.154 121.091 195.045 121.091C196.935 121.091 197.881 119.973 197.881 117.737V99.3635C197.881 97.1276 196.935 96.0096 195.045 96.0096C193.154 96.0096 192.209 97.1276 192.209 99.3635ZM186.737 117.397V99.7037C186.737 96.9817 187.45 94.8754 188.876 93.3848C190.302 91.8942 192.358 91.1489 195.045 91.1489C197.731 91.1489 199.788 91.8942 201.214 93.3848C202.64 94.8754 203.353 96.9817 203.353 99.7037V117.397C203.353 120.119 202.64 122.225 201.214 123.715C199.788 125.206 197.731 125.951 195.045 125.951C192.358 125.951 190.302 125.206 188.876 123.715C187.45 122.225 186.737 120.119 186.737 117.397Z" fill="#ED1C24"/>
<path d="M206.909 125.563V91.5378H215.565C221.004 91.5378 223.724 94.3408 223.724 99.9468V117.154C223.724 122.76 221.004 125.563 215.565 125.563H206.909ZM215.466 96.3985H212.381V120.702H215.466C217.323 120.702 218.252 119.6 218.252 117.397V99.7037C218.252 97.5002 217.323 96.3985 215.466 96.3985Z" fill="#ED1C24"/>
<path d="M226.968 91.5378H232.44V117.785C232.44 119.989 233.385 121.091 235.276 121.091C237.166 121.091 238.111 119.989 238.111 117.785V91.5378H243.285V117.445C243.285 120.2 242.589 122.322 241.196 123.813C239.803 125.271 237.78 126 235.126 126C232.473 126 230.45 125.271 229.057 123.813C227.664 122.322 226.968 120.2 226.968 117.445V91.5378Z" fill="#ED1C24"/>
<path d="M257.734 112.876H262.908V117.397C262.908 120.151 262.211 122.273 260.818 123.764C259.425 125.222 257.402 125.951 254.749 125.951C252.096 125.951 250.073 125.222 248.68 123.764C247.287 122.273 246.59 120.151 246.59 117.397V99.7037C246.59 96.9493 247.287 94.843 248.68 93.3848C250.073 91.8942 252.096 91.1489 254.749 91.1489C257.402 91.1489 259.425 91.8942 260.818 93.3848C262.211 94.843 262.908 96.9493 262.908 99.7037V103.009H257.734V99.3635C257.734 97.1276 256.789 96.0096 254.898 96.0096C253.008 96.0096 252.063 97.1276 252.063 99.3635V117.737C252.063 119.94 253.008 121.042 254.898 121.042C256.789 121.042 257.734 119.94 257.734 117.737V112.876Z" fill="#ED1C24"/>
<path d="M264.636 96.3985V91.5378H281.551V96.3985H275.829V125.563H270.357V96.3985H264.636Z" fill="#ED1C24"/>
<path d="M283.961 125.563V91.5378H289.433V125.563H283.961Z" fill="#ED1C24"/>
<path d="M298.459 99.3635V117.737C298.459 119.973 299.404 121.091 301.294 121.091C303.185 121.091 304.13 119.973 304.13 117.737V99.3635C304.13 97.1276 303.185 96.0096 301.294 96.0096C299.404 96.0096 298.459 97.1276 298.459 99.3635ZM292.986 117.397V99.7037C292.986 96.9817 293.699 94.8754 295.126 93.3848C296.552 91.8942 298.608 91.1489 301.294 91.1489C303.981 91.1489 306.037 91.8942 307.463 93.3848C308.889 94.8754 309.602 96.9817 309.602 99.7037V117.397C309.602 120.119 308.889 122.225 307.463 123.715C306.037 125.206 303.981 125.951 301.294 125.951C298.608 125.951 296.552 125.206 295.126 123.715C293.699 122.225 292.986 120.119 292.986 117.397Z" fill="#ED1C24"/>
<path d="M324.849 125.563L318.034 100.919V125.563H313.109V91.5378H319.974L325.596 111.904V91.5378H330.471V125.563H324.849Z" fill="#ED1C24"/>
</svg>
