<svg width="173" height="187" viewBox="0 0 173 187" fill="none" xmlns="http://www.w3.org/2000/svg">
<path fill-rule="evenodd" clip-rule="evenodd" d="M46.8883 58.3388H0.217285V128.345H46.8883L105.227 186.684V0L46.8883 58.3388ZM146.365 129.848C141.322 131.937 135.917 133.012 130.459 133.012V91.4461V49.8797C135.917 49.8797 141.322 50.9548 146.365 53.0437C151.408 55.1326 155.991 58.1944 159.85 62.0542C163.71 65.914 166.772 70.4962 168.861 75.5393C170.95 80.5824 172.025 85.9875 172.025 91.4461C172.025 96.9047 170.95 102.31 168.861 107.353C166.772 112.396 163.71 116.978 159.85 120.838C155.991 124.698 151.408 127.76 146.365 129.848Z" fill="#EF1B28"/>
</svg>
